<svg viewBox="0 0 26 26" xmlns="http://www.w3.org/2000/svg"><g fill-rule="evenodd"><path d="m7.8 20.8c-1.43 0-2.587 1.17-2.587 2.6 0 1.43 1.157 2.6 2.587 2.6 1.43 0 2.6-1.17 2.6-2.6 0-1.43-1.17-2.6-2.6-2.6m-7.8-20.8v2.6h2.6l4.68 9.867-1.755 3.185c-.208.364-.325.793-.325 1.248 0 1.43 1.17 2.6 2.6 2.6h15.6v-2.6h-15.05c-.182 0-.325-.143-.325-.325l.039-.156 1.17-2.119h9.685c.975 0 1.833-.533 2.275-1.339l4.654-8.437c.104-.182.156-.403.156-.624 0-.715-.585-1.3-1.3-1.3h-19.227l-1.222-2.6h-4.251m20.8 20.8c-1.43 0-2.587 1.17-2.587 2.6 0 1.43 1.157 2.6 2.587 2.6 1.43 0 2.6-1.17 2.6-2.6 0-1.43-1.17-2.6-2.6-2.6" /></g></svg>
